<?xml version="1.0" standalone="no"?><!DOCTYPE svg PUBLIC "-//W3C//DTD SVG 1.1//EN" "http://www.w3.org/Graphics/SVG/1.1/DTD/svg11.dtd"><svg t="1524450806651" class="icon" style="" viewBox="0 0 1024 1024" version="1.1" xmlns="http://www.w3.org/2000/svg" p-id="6885" xmlns:xlink="http://www.w3.org/1999/xlink" width="200" height="200"><defs><style type="text/css"></style></defs><path d="M31.258 138.093h106.823v-106.835h-106.823zM244.918 138.093h106.823v-106.835h-106.823zM458.576 138.093h106.823v-106.835h-106.823zM672.237 138.093h106.823v-106.835h-106.823zM885.895 31.258v106.835h106.847v-106.835zM244.918 351.741h106.823v-106.823h-106.823zM458.576 351.741h106.823v-106.823h-106.823zM672.237 351.741h106.823v-106.823h-106.823zM885.895 351.741h106.847v-106.823h-106.847zM244.918 565.4h106.823v-106.823h-106.823zM458.576 565.4h106.823v-106.823h-106.823zM672.237 565.4h106.823v-106.823h-106.823zM885.895 565.4h106.847v-106.823h-106.847zM244.918 779.071h106.823v-106.835h-106.823zM458.576 779.071h106.823v-106.835h-106.823zM672.237 779.071h106.823v-106.835h-106.823zM885.895 779.071h106.847v-106.835h-106.847zM31.258 992.73h106.823v-106.823h-106.823zM244.918 992.73h106.823v-106.823h-106.823zM458.576 992.73h106.823v-106.823h-106.823zM672.237 992.73h106.823v-106.823h-106.823zM885.895 992.73h106.847v-106.823h-106.847z" fill="#2c2c2c" p-id="6886"></path></svg>