<?xml version="1.0" standalone="no"?><!DOCTYPE svg PUBLIC "-//W3C//DTD SVG 1.1//EN" "http://www.w3.org/Graphics/SVG/1.1/DTD/svg11.dtd"><svg t="1524369848304" class="icon" style="" viewBox="0 0 1024 1024" version="1.1" xmlns="http://www.w3.org/2000/svg" p-id="5846" xmlns:xlink="http://www.w3.org/1999/xlink" width="200" height="200"><defs><style type="text/css"></style></defs><path d="M222 657.1h-2.3c-77-1.2-138.6-64.9-137.4-141.8C83.6 439 146 377.8 221.9 377.8h2.3c77 1.2 138.6 64.9 137.4 141.8-1.3 76.3-63.7 137.5-139.6 137.5z m-0.1-245c-27.5 0-53.4 10.5-73.2 29.7-20.2 19.6-31.6 45.8-32 74-0.9 58.1 45.6 106.1 103.6 107h1.7c57.3 0 104.4-46.1 105.3-103.6 0.9-58.1-45.6-106.1-103.6-107-0.7-0.1-1.2-0.1-1.8-0.1zM696.5 422.7h-2.3c-77-1.2-138.6-64.9-137.4-141.8 0.6-37.3 15.7-72.1 42.5-98.1 26.2-25.4 60.6-39.3 97.1-39.3h2.3c77 1.2 138.6 64.9 137.4 141.8-0.6 37.3-15.7 72.1-42.5 98.1-26.2 25.4-60.6 39.3-97.1 39.3z m-0.1-244.9c-27.5 0-53.4 10.5-73.2 29.7-20.2 19.6-31.6 45.8-32 74-0.9 58.1 45.6 106.1 103.6 107 28.2 0.4 54.8-10.1 75-29.6 20.2-19.6 31.6-45.8 32-74 0.9-58.1-45.6-106.1-103.6-107-0.6-0.1-1.2-0.1-1.8-0.1zM604.6 889.7h-2.3c-77-1.2-138.6-64.9-137.4-141.8 0.6-37.3 15.7-72.1 42.5-98.1 26.8-25.9 62.1-39.9 99.4-39.3 37.3 0.6 72.1 15.7 98.1 42.5 25.9 26.8 39.9 62.1 39.3 99.4-1.3 76.1-63.7 137.3-139.6 137.3z m-0.1-245c-27.5 0-53.4 10.5-73.2 29.7-20.2 19.6-31.6 45.8-32 74-0.9 58.1 45.6 106.1 103.6 107 58 0.9 106.1-45.6 107-103.6 0.5-28.1-10.1-54.8-29.7-75-19.6-20.2-45.8-31.6-74-32-0.6-0.1-1.1-0.1-1.7-0.1z" fill="#231815" p-id="5847"></path><path d="M565.2 321.2L332.5 436.5c-8.4 4.2-11.9 14.5-7.8 23 4.2 8.4 14.5 11.9 23 7.8L580.3 352c8.4-4.2 11.9-14.5 7.8-23-4.1-8.5-14.5-12-22.9-7.8zM355.7 578.6l135.2 88.7c7.9 5.2 10.1 15.9 4.9 23.7-5.2 7.9-15.9 10.1-23.7 4.9l-135.2-88.7c-7.9-5.2-10.1-15.9-4.9-23.7 5.1-7.8 15.8-10 23.7-4.9z" fill="#231815" p-id="5848"></path><path d="M275.7 518.3c-0.5 29.7-24.9 53.4-54.6 52.9-29.7-0.5-53.4-25-52.9-54.7 0.5-29.7 24.9-53.4 54.6-52.9s53.4 25 52.9 54.7zM756.4 282.5c-0.5 30.4-25.5 54.6-55.8 54.1s-54.6-25.5-54.1-55.9 25.5-54.6 55.8-54.1c30.3 0.6 54.6 25.6 54.1 55.9zM661.2 753.1c-0.5 31-26 55.8-57.1 55.3-31-0.5-55.8-26.1-55.3-57.1s26-55.8 57.1-55.3c31 0.5 55.8 26.1 55.3 57.1z" fill="#FEE632" p-id="5849"></path></svg>